<svg xmlns="http://www.w3.org/2000/svg" viewBox="0 0 500 500"><g id="freepik--background-simple--inject-69"><path d="M460.05,266.41c-12.65,38.34-39.9,80.36-80,94-60.6,20.67-66,70.37-176,70a222.4,222.4,0,0,1-47.75-5.13,185.83,185.83,0,0,1-22.61-6.56C68.56,395.28,32.89,339.4,27.8,279.67c-6.71-78.54,46.74-118.17,81.58-141.51S183.93,28.06,292.05,27.54a214.83,214.83,0,0,1,49.07,5.24c36.71,8.43,74.49,28.75,97.18,59.72,1.7,2.32,3.33,4.71,4.9,7.14C473.81,147.26,477.3,214.14,460.05,266.41Z" style="fill:#DC2E2E"></path><path d="M460.05,266.41c-12.65,38.34-39.9,80.36-80,94-60.6,20.67-66,70.37-176,70a222.4,222.4,0,0,1-47.75-5.13,185.83,185.83,0,0,1-22.61-6.56C68.56,395.28,32.89,339.4,27.8,279.67c-6.71-78.54,46.74-118.17,81.58-141.51S183.93,28.06,292.05,27.54a214.83,214.83,0,0,1,49.07,5.24c36.71,8.43,74.49,28.75,97.18,59.72,1.7,2.32,3.33,4.71,4.9,7.14C473.81,147.26,477.3,214.14,460.05,266.41Z" style="fill:#fff;opacity:0.7000000000000001"></path></g><g id="freepik--Floor--inject-69"><line x1="42.95" y1="449.82" x2="462.44" y2="449.82" style="fill:none;stroke:#263238;stroke-linecap:round;stroke-linejoin:round"></line></g><g id="freepik--Plants--inject-69"><path d="M351.48,378.33c2.4,1.05,8.28.92,8.28.92s-1.26-3.85-1.37-4.09c-1.29-2.69-5.37-7.15-8.69-6.7a4,4,0,0,0-3.18,5C347.07,375.73,349.43,377.43,351.48,378.33Z" style="fill:#263238"></path><path d="M353.5,395.36c2.5.36,7.74-1.16,8.16-1.29a71.18,71.18,0,0,0,3.18,8.81c.72,1.67,1.5,3.33,2.3,5-.47-.7-.91-1.32-1-1.4-2-2.26-7.06-5.48-10.15-4.17a4,4,0,0,0-1.75,5.63c1.14,2.07,3.86,3.09,6.07,3.42s6.74-.88,7.93-1.22c.31.63.62,1.27.94,1.9,1.52,3,3.05,6,4.45,9,.5,1.06,1,2.12,1.41,3.18-.43-.62-.79-1.15-.86-1.22-1.95-2.26-7.06-5.48-10.14-4.17a4,4,0,0,0-1.76,5.63c1.14,2.07,3.86,3.1,6.07,3.42s6.31-.77,7.72-1.16c.43,1.1.87,2.2,1.24,3.28.23.75.51,1.45.71,2.21s.41,1.49.62,2.23c.34,1.43.71,2.9,1,4.31.21,1,.4,1.9.59,2.84-.48-1.05-1.47-3.1-1.57-3.27-1.59-2.53-6.16-6.48-9.4-5.66a4,4,0,0,0-2.59,5.3c.81,2.22,3.35,3.65,5.49,4.3,2.35.72,7.55.06,8.2,0,.32,1.55.61,3.07.86,4.5.18,1.06.35,2.09.51,3.07h2.09c-.2-1.1-.42-2.24-.65-3.43-.31-1.58-.68-3.27-1.07-5a44.08,44.08,0,0,0,4.58-2.15c1.72,1.85,6.11,4,6.68,4.3-.6,1.47-1.2,2.89-1.78,4.23-.31.71-.61,1.37-.9,2h2.2c.18-.42.35-.83.53-1.27.61-1.49,1.24-3.09,1.86-4.75.63.13,5.79,1.18,8.19.64,2.18-.49,4.82-1.73,5.79-3.88a4,4,0,0,0-2.18-5.48c-3.18-1.06-8,2.54-9.8,4.95-.11.14-1.07,1.81-1.66,2.87.25-.68.5-1.33.76-2,.5-1.38,1-2.78,1.47-4.27.22-.73.44-1.47.67-2.22s.39-1.54.59-2.32c.44-1.81.78-3.67,1.09-5.55,1.21.44,5.54,1.94,7.77,1.79s5-1,6.32-3a4,4,0,0,0-1.34-5.75c-3-1.53-8.31,1.3-10.43,3.41-.13.13-1.48,1.82-2.2,2.75.17-1.13.36-2.25.5-3.4.41-3.33.72-6.7,1.05-10.06.1-1,.21-2.06.32-3.09.43.16,5.53,2.06,8,1.89,2.22-.16,5-1,6.31-3a4,4,0,0,0-1.33-5.75c-3-1.53-8.31,1.3-10.43,3.41-.16.16-2.1,2.58-2.57,3.23.24-2.27.5-4.52.85-6.73a68.52,68.52,0,0,1,1.93-8.84c.2.07,5.51,2.08,8.07,1.9,2.23-.16,5-1,6.32-3a4,4,0,0,0-1.33-5.74c-3-1.54-8.32,1.29-10.44,3.4-.16.17-2.25,2.78-2.59,3.28,0-.17.08-.35.13-.52a52.27,52.27,0,0,1,3.5-8.37c.77-1.49,1.58-2.87,2.4-4.19.95.47,5.32,2.59,7.65,2.69s5.1-.42,6.6-2.25a4,4,0,0,0-.7-5.86c-2.79-1.85-8.4.38-10.74,2.24-.13.1-1.3,1.28-2.15,2.14.38-.59.76-1.21,1.13-1.77,1.4-2.11,2.82-4,4.08-5.58.73-.92,1.4-1.73,2-2.49,1.18,0,5.92-.16,8-1.14s4.33-2.72,4.82-5a4,4,0,0,0-3.31-4.88c-3.33-.36-7.29,4.2-8.51,6.94-.1.23-1.32,4.11-1.26,4.11h.07c-.63.72-1.3,1.49-2,2.35-1.3,1.6-2.76,3.42-4.21,5.51a70.36,70.36,0,0,0-4.37,7,52,52,0,0,0-3.73,8.4l0,.1c0-1,0-3.72-.05-3.93-.39-3-2.87-8.47-6.16-9.08a4,4,0,0,0-4.58,3.72c-.19,2.36,1.52,4.72,3.19,6.21,1.88,1.67,7.09,3.3,7.51,3.43a70.3,70.3,0,0,0-2.21,9.1c-.32,1.79-.58,3.6-.83,5.42,0-.84,0-1.6,0-1.71-.39-3-2.87-8.47-6.17-9.08a4,4,0,0,0-4.57,3.73c-.19,2.36,1.52,4.71,3.19,6.2s6.1,3,7.28,3.36l-.27,2.1c-.4,3.36-.78,6.72-1.26,10-.17,1.15-.38,2.28-.58,3.42,0-.76,0-1.39-.05-1.49-.38-3-2.87-8.47-6.16-9.08a4,4,0,0,0-4.57,3.73c-.19,2.36,1.52,4.72,3.18,6.2s5.68,2.84,7.07,3.29c-.24,1.16-.48,2.32-.77,3.42-.22.76-.37,1.49-.63,2.24s-.47,1.47-.71,2.2c-.5,1.38-1,2.81-1.54,4.15-.35.93-.71,1.81-1.07,2.7.18-1.15.49-3.4.49-3.59a15.38,15.38,0,0,0-2.06-7.49A4.34,4.34,0,0,0,392,431a4,4,0,0,0-4.84-3.36c-3.24.86-5.29,6.54-5.44,9.53,0,.18.1,2.1.19,3.31-.16-.7-.31-1.39-.48-2.11-.34-1.43-.73-2.85-1.13-4.38-.22-.73-.44-1.47-.67-2.21s-.52-1.51-.78-2.27c-.64-1.75-1.37-3.49-2.15-5.23,1.25-.3,5.68-1.43,7.46-2.79s3.65-3.59,3.64-6a4,4,0,0,0-4.28-4.06c-3.33.36-6.22,5.66-6.83,8.59,0,.19-.23,2.34-.32,3.52-.47-1-.94-2.08-1.46-3.12-1.49-3-3.08-6-4.67-9-.48-.92-1-1.83-1.43-2.75.45-.1,5.74-1.33,7.74-2.86,1.77-1.36,3.65-3.59,3.63-5.95a4,4,0,0,0-4.28-4.06c-3.33.36-6.22,5.67-6.82,8.6-.05.22-.33,3.31-.36,4.1-1.05-2-2.07-4-3-6.07a69.79,69.79,0,0,1-3.27-8.44c.21-.05,5.74-1.31,7.78-2.88,1.77-1.36,3.65-3.58,3.64-5.94a4,4,0,0,0-4.28-4.06c-3.33.36-6.22,5.66-6.83,8.59,0,.23-.34,3.56-.35,4.17-.05-.17-.13-.34-.18-.5a50.78,50.78,0,0,1-1.69-8.92c-.19-1.66-.27-3.26-.32-4.82,1-.13,5.87-.77,7.86-2s4-3.17,4.27-5.52a4,4,0,0,0-3.81-4.5c-3.35,0-6.8,4.95-7.73,7.79-.05.16-.38,1.79-.61,3,0-.71,0-1.43,0-2.11,0-2.53.16-4.85.32-6.9.1-1.17.21-2.22.33-3.21,1-.66,4.84-3.4,6-5.35s2.12-4.66,1.25-6.86a4,4,0,0,0-5.46-2.24c-3,1.54-3.75,7.53-3.26,10.48,0,.25,1.16,4.16,1.22,4.13l0,0c-.13.94-.26,2-.37,3.07-.21,2.05-.42,4.37-.48,6.91a68.09,68.09,0,0,0,.2,8.22,52,52,0,0,0,1.52,9.06l0,.1c-.53-.83-2.08-3.09-2.22-3.25-1.95-2.26-7.06-5.48-10.14-4.17a4,4,0,0,0-1.76,5.63C348.57,394,351.29,395,353.5,395.36Z" style="fill:#263238"></path><path d="M410.93,379.62c.05,0,1.07-3.91,1.11-4.16.41-3-.54-8.93-3.55-10.39a4,4,0,0,0-5.39,2.39c-.81,2.22.21,5,1.43,6.83C406,376.49,410.93,379.62,410.93,379.62Z" style="fill:#263238"></path><path d="M67.66,378.33c2.4,1.05,8.28.92,8.28.92s-1.26-3.85-1.37-4.09c-1.29-2.69-5.37-7.15-8.69-6.7a4,4,0,0,0-3.18,5C63.25,375.73,65.61,377.43,67.66,378.33Z" style="fill:#263238"></path><path d="M69.69,395.36c2.49.36,7.74-1.16,8.15-1.29A71.18,71.18,0,0,0,81,402.88q1.1,2.5,2.31,5c-.48-.7-.92-1.32-1-1.4-2-2.26-7.07-5.48-10.15-4.17a4,4,0,0,0-1.76,5.63c1.14,2.07,3.87,3.09,6.07,3.42s6.75-.88,7.93-1.22c.32.63.62,1.27.94,1.9,1.52,3,3.05,6,4.46,9,.49,1.06,1,2.12,1.4,3.18-.43-.62-.79-1.15-.85-1.22-2-2.26-7.07-5.48-10.15-4.17a4,4,0,0,0-1.76,5.63c1.14,2.07,3.87,3.1,6.08,3.42s6.3-.77,7.71-1.16c.43,1.1.87,2.2,1.24,3.28.24.75.52,1.45.71,2.21s.42,1.49.62,2.23c.35,1.43.71,2.9,1,4.31.21,1,.4,1.9.59,2.84-.48-1.05-1.47-3.1-1.57-3.27-1.59-2.53-6.15-6.48-9.4-5.66a4,4,0,0,0-2.59,5.3c.81,2.22,3.35,3.65,5.49,4.3,2.35.72,7.56.06,8.21,0,.31,1.55.6,3.07.85,4.5.19,1.06.36,2.09.51,3.07H100c-.2-1.1-.41-2.24-.65-3.43-.31-1.58-.68-3.27-1.07-5a42.16,42.16,0,0,0,4.58-2.15c1.72,1.85,6.11,4,6.68,4.3-.6,1.47-1.19,2.89-1.78,4.23l-.9,2h2.2c.18-.42.35-.83.53-1.27.61-1.49,1.24-3.09,1.87-4.75.63.13,5.78,1.18,8.18.64,2.18-.49,4.82-1.73,5.8-3.88a4,4,0,0,0-2.19-5.48c-3.18-1.06-8,2.54-9.8,4.95-.1.14-1.07,1.81-1.66,2.87.25-.68.51-1.33.76-2,.51-1.38,1-2.78,1.48-4.27.21-.73.44-1.47.66-2.22s.39-1.54.6-2.32c.43-1.81.78-3.67,1.09-5.55,1.21.44,5.53,1.94,7.77,1.79s5-1,6.31-3a4,4,0,0,0-1.33-5.75c-3-1.53-8.32,1.3-10.43,3.41-.14.13-1.49,1.82-2.21,2.75.18-1.13.36-2.25.5-3.4.41-3.33.73-6.7,1.06-10.06.1-1,.21-2.06.32-3.09.42.16,5.52,2.06,8,1.89,2.23-.16,5-1,6.31-3a4,4,0,0,0-1.33-5.75c-3-1.53-8.31,1.3-10.43,3.41-.16.16-2.1,2.58-2.56,3.23.23-2.27.49-4.52.84-6.73a68.52,68.52,0,0,1,1.93-8.84c.2.07,5.51,2.08,8.08,1.9,2.23-.16,5-1,6.31-3a4,4,0,0,0-1.33-5.74c-3-1.54-8.31,1.29-10.43,3.4-.17.17-2.26,2.78-2.6,3.28,0-.17.08-.35.13-.52a51.39,51.39,0,0,1,3.51-8.37c.76-1.49,1.57-2.87,2.39-4.19.95.47,5.32,2.59,7.65,2.69s5.1-.42,6.6-2.25a4,4,0,0,0-.69-5.86c-2.79-1.85-8.41.38-10.75,2.24-.12.1-1.3,1.28-2.15,2.14.38-.59.76-1.21,1.13-1.77,1.41-2.11,2.82-4,4.08-5.58.73-.92,1.4-1.73,2-2.49,1.18,0,5.92-.16,8-1.14s4.33-2.72,4.82-5a4,4,0,0,0-3.31-4.88c-3.33-.36-7.29,4.2-8.5,6.94-.11.23-1.33,4.11-1.27,4.11H135c-.63.72-1.29,1.49-2,2.35-1.3,1.6-2.76,3.42-4.21,5.51a70.36,70.36,0,0,0-4.36,7,50.33,50.33,0,0,0-3.73,8.4.38.38,0,0,0,0,.1c0-1,0-3.72-.06-3.93-.38-3-2.87-8.47-6.16-9.08a4,4,0,0,0-4.57,3.72c-.2,2.36,1.51,4.72,3.18,6.21,1.88,1.67,7.09,3.3,7.51,3.43a70.3,70.3,0,0,0-2.21,9.1c-.32,1.79-.58,3.6-.83,5.42,0-.84,0-1.6,0-1.71-.38-3-2.87-8.47-6.16-9.08a4,4,0,0,0-4.57,3.73c-.2,2.36,1.51,4.71,3.18,6.2s6.11,3,7.28,3.36c-.09.7-.18,1.4-.26,2.1-.41,3.36-.79,6.72-1.27,10-.17,1.15-.38,2.28-.58,3.42,0-.76,0-1.39,0-1.49-.39-3-2.87-8.47-6.17-9.08a4,4,0,0,0-4.57,3.73c-.19,2.36,1.52,4.72,3.18,6.2s5.68,2.84,7.08,3.29c-.25,1.16-.49,2.32-.78,3.42-.21.76-.37,1.49-.62,2.24l-.72,2.2c-.5,1.38-1,2.81-1.53,4.15-.36.93-.72,1.81-1.08,2.7.18-1.15.49-3.4.49-3.59a15.28,15.28,0,0,0-2.06-7.49,5.2,5.2,0,0,0,0-.88,4,4,0,0,0-4.85-3.36c-3.24.86-5.29,6.54-5.44,9.53,0,.18.1,2.1.2,3.31-.17-.7-.32-1.39-.49-2.11-.34-1.43-.72-2.85-1.13-4.38-.22-.73-.44-1.47-.67-2.21s-.52-1.51-.78-2.27c-.64-1.75-1.37-3.49-2.15-5.23,1.25-.3,5.69-1.43,7.47-2.79s3.65-3.59,3.63-6a4,4,0,0,0-4.28-4.06c-3.33.36-6.22,5.66-6.82,8.59,0,.19-.24,2.34-.32,3.52-.48-1-1-2.08-1.47-3.12-1.48-3-3.08-6-4.66-9-.49-.92-1-1.83-1.44-2.75.45-.1,5.75-1.33,7.74-2.86,1.77-1.36,3.65-3.59,3.63-5.95a4,4,0,0,0-4.28-4.06c-3.33.36-6.21,5.67-6.82,8.6,0,.22-.32,3.31-.36,4.1-1-2-2.07-4-3-6.07a69.79,69.79,0,0,1-3.27-8.44c.21-.05,5.74-1.31,7.78-2.88,1.78-1.36,3.66-3.58,3.64-5.94a4,4,0,0,0-4.28-4.06c-3.33.36-6.22,5.66-6.82,8.59,0,.23-.35,3.56-.36,4.17,0-.17-.12-.34-.17-.5a50.82,50.82,0,0,1-1.7-8.92c-.19-1.66-.27-3.26-.32-4.82,1.06-.13,5.87-.77,7.86-2s4-3.17,4.27-5.52a4,4,0,0,0-3.81-4.5c-3.35,0-6.8,4.95-7.72,7.79,0,.16-.39,1.79-.62,3,0-.71,0-1.43,0-2.11,0-2.53.16-4.85.32-6.9.1-1.17.22-2.22.33-3.21,1-.66,4.84-3.4,6-5.35s2.11-4.66,1.24-6.86a4,4,0,0,0-5.45-2.24c-3,1.54-3.76,7.53-3.27,10.48,0,.25,1.17,4.16,1.22,4.13l.06,0c-.13.94-.26,2-.38,3.07-.21,2.05-.42,4.37-.48,6.91a72.46,72.46,0,0,0,.2,8.22,52,52,0,0,0,1.52,9.06l0,.1c-.52-.83-2.07-3.09-2.21-3.25-2-2.26-7.07-5.48-10.15-4.17a4,4,0,0,0-1.76,5.63C64.75,394,67.48,395,69.69,395.36Z" style="fill:#263238"></path><path d="M127.11,379.62c.06,0,1.07-3.91,1.11-4.16.41-3-.53-8.93-3.55-10.39a4,4,0,0,0-5.39,2.39c-.81,2.22.22,5,1.43,6.83C122.13,376.49,127.11,379.62,127.11,379.62Z" style="fill:#263238"></path></g><g id="freepik--hearts-2--inject-69"><path d="M398,238.45l-32.6,32.6L241.25,395.28,117,271.12l-32.6-32.67A87.79,87.79,0,1,1,208.58,114.29l32.67,32.6,32.6-32.6A87.8,87.8,0,0,1,398,238.45Z" style="fill:none;stroke:#263238;stroke-linecap:round;stroke-linejoin:round"></path><path d="M190.79,78.61l-2,2-7.57,7.58-7.58-7.57-2-2A5.35,5.35,0,1,1,179.23,71l2,2,2-2a5.35,5.35,0,0,1,7.57,7.57Z" style="fill:none;stroke:#263238;stroke-linecap:round;stroke-linejoin:round"></path><path d="M120,78.07l-2,2-7.57,7.57-7.58-7.57-2-2a5.36,5.36,0,1,1,7.58-7.57l2,2,2-2A5.35,5.35,0,0,1,120,78.07Z" style="fill:none;stroke:#263238;stroke-linecap:round;stroke-linejoin:round"></path><path d="M59.52,128.67l-2,2L50,138.24l-7.58-7.58-2-2A5.36,5.36,0,0,1,48,121.1l2,2,2-2a5.35,5.35,0,0,1,7.57,0A5.35,5.35,0,0,1,59.52,128.67Z" style="fill:none;stroke:#263238;stroke-linecap:round;stroke-linejoin:round"></path><path d="M59.21,216.52l-2,2-7.57,7.58-7.58-7.58-2-2a5.36,5.36,0,0,1,3.79-9.14A5.3,5.3,0,0,1,47.65,209l2,2,2-2a5.36,5.36,0,0,1,7.58,7.57Z" style="fill:none;stroke:#263238;stroke-linecap:round;stroke-linejoin:round"></path><path d="M111.37,282.74l-2,2-7.57,7.58-7.58-7.57-2-2a5.36,5.36,0,0,1,7.58-7.57l2,2,2-2a5.35,5.35,0,0,1,7.57,7.57Z" style="fill:none;stroke:#263238;stroke-linecap:round;stroke-linejoin:round"></path><path d="M162.68,329.13l-2,2-7.58,7.58-7.57-7.58-2-2a5.35,5.35,0,1,1,7.57-7.57l2,2,2-2a5.36,5.36,0,0,1,7.58,7.57Z" style="fill:none;stroke:#263238;stroke-linecap:round;stroke-linejoin:round"></path><path d="M293,78.61l2,2,7.57,7.58,7.58-7.57,2-2A5.35,5.35,0,1,0,304.58,71l-2,2-2-2A5.35,5.35,0,0,0,293,78.61Z" style="fill:none;stroke:#263238;stroke-linecap:round;stroke-linejoin:round"></path><path d="M363.85,78.07l2,2,7.58,7.57L381,80.06l2-2a5.35,5.35,0,1,0-7.57-7.57l-2,2-2-2a5.36,5.36,0,1,0-7.58,7.57Z" style="fill:none;stroke:#263238;stroke-linecap:round;stroke-linejoin:round"></path><path d="M424.3,128.67l2,2,7.57,7.58,7.58-7.58,2-2a5.35,5.35,0,0,0,0-7.57,5.35,5.35,0,0,0-7.57,0l-2,2-2-2a5.35,5.35,0,0,0-7.57,7.57Z" style="fill:none;stroke:#263238;stroke-linecap:round;stroke-linejoin:round"></path><path d="M424.61,216.52l2,2,7.57,7.58,7.58-7.58,2-2a5.36,5.36,0,0,0-7.58-7.57l-2,2-2-2a5.35,5.35,0,1,0-7.57,7.57Z" style="fill:none;stroke:#263238;stroke-linecap:round;stroke-linejoin:round"></path><path d="M372.45,282.74l2,2,7.58,7.58,7.57-7.57,2-2a5.35,5.35,0,1,0-7.57-7.57l-2,2-2-2a5.35,5.35,0,0,0-7.57,7.57Z" style="fill:none;stroke:#263238;stroke-linecap:round;stroke-linejoin:round"></path><path d="M321.14,329.13l2,2,7.57,7.58,7.58-7.58,2-2a5.36,5.36,0,0,0-7.58-7.57l-2,2-2-2a5.35,5.35,0,0,0-7.57,0A5.35,5.35,0,0,0,321.14,329.13Z" style="fill:none;stroke:#263238;stroke-linecap:round;stroke-linejoin:round"></path></g><g id="freepik--hearts-1--inject-69"><path d="M212,56.85l3.42,3.43,13,13,13-13,3.43-3.43a9.21,9.21,0,1,0-13-13l-3.43,3.42L225,43.83a9.21,9.21,0,1,0-13,13Z" style="fill:#DC2E2E;stroke:#263238;stroke-linecap:round;stroke-linejoin:round"></path><path d="M246.9,38.41,249.48,41l9.82,9.82L269.12,41l2.58-2.58a6.94,6.94,0,1,0-9.82-9.82l-2.58,2.58-2.58-2.58a6.94,6.94,0,1,0-9.82,9.82Z" style="fill:#DC2E2E;stroke:#263238;stroke-linecap:round;stroke-linejoin:round"></path></g><g id="freepik--Characters--inject-69"><path d="M236.78,149s18.06,5.08,19.24,5.8.84,31.52.84,31.52l-13.52-2.17Z" style="fill:#263238;stroke:#263238;stroke-linecap:round;stroke-linejoin:round"></path><polygon points="208.44 146.93 207.56 212.37 181.18 209.08 182.7 189.86 188.71 147.59 197.37 144.15 208.44 146.93" style="fill:#263238;stroke:#263238;stroke-linecap:round;stroke-linejoin:round"></polygon><path d="M231.17,141.74,229.3,146l7.48,3s6.11,33.07,6.56,35.15-11.9,6-21.72,6.32a119.51,119.51,0,0,1-14.79-.15s3-23.81,2.47-32.78-2.09-24.85-2.09-24.85,1.64-2.87,3.88-2.79S231.17,141.74,231.17,141.74Z" style="fill:#fff;stroke:#263238;stroke-linecap:round;stroke-linejoin:round"></path><line x1="228.54" y1="144.81" x2="224.96" y2="155.32" style="fill:none;stroke:#263238;stroke-linecap:round;stroke-linejoin:round"></line><path d="M247.36,300.19s-3.48,38.18-6.87,51.56-9.43,41.69-12.35,59.74-2.83,24.78-2.83,24.78l.58,5.93a57,57,0,0,0,13.14,9c7.09,3.3,14.77,4.55,13.28,7.37s-8.82,5.18-16.56,4.77-17.46-5-17.46-5-8.72-1.33-10.74-2.33-1.88-2.88-1.27-5.14,4.78-22.95,5.27-26.48-.47-33.45.3-43.05.9-13.8,2.87-22.68a115.4,115.4,0,0,1,3.85-14c.28-.82-1.84-42.59-1.84-42.59Z" style="fill:#fff;stroke:#263238;stroke-linecap:round;stroke-linejoin:round"></path><path d="M235.75,463.38c7.74.41,15.07-1.95,16.56-4.77s-6.19-4.07-13.28-7.37a57,57,0,0,1-13.14-9s-2.39-1.66-3.6.34a30.47,30.47,0,0,0-2,4s-1.46-.12-6.32-2.4a52,52,0,0,1-5.6-3.08c-1,4.75-1.83,8.88-2.08,9.82-.61,2.26-.76,4.14,1.27,5.14s10.74,2.33,10.74,2.33S228,463,235.75,463.38Z" style="fill:#fff;stroke:#263238;stroke-linecap:round;stroke-linejoin:round"></path><path d="M252.31,458.61a1.35,1.35,0,0,0-.25-1.65,38.18,38.18,0,0,1-10.92,4.75c-7.93,1.88-15.76-2.74-24.1-6.14-4.66-1.9-8.44-3.33-10.86-4.23-.51,2.08-.53,3.79,1.37,4.73s10.74,2.33,10.74,2.33,9.72,4.57,17.46,5S250.82,461.43,252.31,458.61Z" style="fill:#fff;stroke:#263238;stroke-linecap:round;stroke-linejoin:round"></path><path d="M221.24,300.42s16.82,48.56,16,55.45-55,40.49-59.92,43.26-11.14,7.17-11.39,8.42,4.29,21.94,7.46,27.5,6,9,4.26,10.41-6.92,0-13.35-1.91-13-11.34-17.16-19.65-4.54-14.41-2.37-16.64,17.86-13.86,26.25-20.5,24.6-27.26,28.89-30.25a59.79,59.79,0,0,0,8.87-8.3l-26.05-35.66Z" style="fill:#fff;stroke:#263238;stroke-linecap:round;stroke-linejoin:round"></path><line x1="208.74" y1="348.21" x2="216.39" y2="357.69" style="fill:#fff;stroke:#263238;stroke-linecap:round;stroke-linejoin:round"></line><path d="M177.61,445.46c1.72-1.41-1.1-4.86-4.26-10.41-2.27-4-5.25-15.72-6.66-22.52l-.55-.15s-1-2.13-3.74-.75a20.71,20.71,0,0,0-5.39,4.43s-4.79-4.1-6.52-13.52c-2.88,2.25-5.05,4-5.76,4.72-2.17,2.23-1.75,8.33,2.37,16.64s10.73,17.75,17.16,19.64S175.88,446.87,177.61,445.46Z" style="fill:#fff;stroke:#263238;stroke-linecap:round;stroke-linejoin:round"></path><path d="M157.8,436.2c-6.8-6.78-11.63-21.64-13.54-28.32-1.61,2.61-.95,8.37,2.84,16,4.13,8.31,10.73,17.75,17.16,19.64s11.62,3.33,13.35,1.92a1.49,1.49,0,0,0,.51-1.36C173.86,444,164.5,442.88,157.8,436.2Z" style="fill:#fff;stroke:#263238;stroke-linecap:round;stroke-linejoin:round"></path><path d="M206.1,145.38a268.56,268.56,0,0,1-.74,27c-1.15,13.72-4.47,35.81-4.47,35.81l-19.42-.48L177,223.9s-9.4,18.78-12.82,33.64,9.06,52.95,9.06,52.95l50.94-10.33,30.56-3.28s-1.69-21.22-4.43-37.14-5.21-29.26-5.5-31,2.21-40.19-.21-50.25-6.43-28.78-6.43-28.78l-3.41-1s5.18,25.12,5.76,28.24a42.38,42.38,0,0,1,.65,6.21s-7.82,2.32-14.52,2.1-15.3-1.1-15.3-1.1-.45-22-.6-27.48-1.13-12.78-1.13-12.78Z" style="fill:#DC2E2E;stroke:#263238;stroke-linecap:round;stroke-linejoin:round"></path><polygon points="209.48 193.15 208.53 216.35 226.99 227.08 241.93 215.92 242.35 193.22 209.48 193.15" style="fill:none;stroke:#263238;stroke-linecap:round;stroke-linejoin:round"></polygon><path d="M194.47,218s-2.67,8.89-7.78,11.62-7.77,3.17-7.77,3.17" style="fill:none;stroke:#263238;stroke-linecap:round;stroke-linejoin:round"></path><path d="M184.06,221.37s-7.15,8.48-9.24,31.38" style="fill:none;stroke:#263238;stroke-linecap:round;stroke-linejoin:round"></path><path d="M182.46,294.81c.59,1.36,1.23,2.68,1.91,3.95" style="fill:none;stroke:#263238;stroke-linecap:round;stroke-linejoin:round"></path><path d="M174.92,257.77s.52,17.14,5.67,32.19" style="fill:none;stroke:#263238;stroke-linecap:round;stroke-linejoin:round"></path><path d="M213.64,262.67a42.22,42.22,0,0,0-2.09-4.49" style="fill:none;stroke:#263238;stroke-linecap:round;stroke-linejoin:round"></path><path d="M223.5,295.68s-4.06-17.13-8.39-29.17" style="fill:none;stroke:#263238;stroke-linecap:round;stroke-linejoin:round"></path><path d="M219.44,279.2s10.08-13.08,13-19.27" style="fill:none;stroke:#263238;stroke-linecap:round;stroke-linejoin:round"></path><path d="M225.06,298l1.28,9s12.21-1.7,18.86-3.06a72.29,72.29,0,0,0,10.93-3.07l-1-8.49Z" style="fill:#e3e3e3;stroke:#263238;stroke-linecap:round;stroke-linejoin:round"></path><path d="M169.58,306.71s3.87,10.69,4.66,10.72,42.27-8.35,53.77-12.72l-2.35-8.79Z" style="fill:#e3e3e3;stroke:#263238;stroke-linecap:round;stroke-linejoin:round"></path><path d="M243.77,132.41s.48,11.9.87,13.38.35,2.79-2.16,3.3a20,20,0,0,1-9.94-1.07c-3.47-1.29-4.45-2.64-4-3.21s2.83-5.48,2.83-5.48Z" style="fill:#263238;stroke:#263238;stroke-linecap:round;stroke-linejoin:round"></path><path d="M234.15,91.33s-24.5,13.54-24.56,15.3,2.08,25.29,3.5,26.81,14,9.71,17.68,10.71,7,.53,8.24-1.05,5.32-9.94,7.08-14.42,1.11-24.16,1-25.34S238.7,91.33,234.15,91.33Z" style="fill:#fff;stroke:#263238;stroke-linecap:round;stroke-linejoin:round"></path><path d="M238.93,110.7s3.22-4.3,6.47-.52" style="fill:none;stroke:#263238;stroke-linecap:round;stroke-linejoin:round"></path><path d="M228.36,111.07s-3.27-3-8.25,1.05" style="fill:none;stroke:#263238;stroke-linecap:round;stroke-linejoin:round"></path><path d="M243.44,116.12c-.05,1.3-.61,2.33-1.25,2.31s-1.14-1.09-1.1-2.38.61-2.33,1.25-2.31S243.48,114.83,243.44,116.12Z" style="fill:#263238"></path><path d="M228.74,117.1c0,1.29-.6,2.32-1.25,2.3s-1.14-1.09-1.09-2.38.6-2.33,1.25-2.3S228.78,115.8,228.74,117.1Z" style="fill:#263238"></path><path d="M234.84,127.71a5.59,5.59,0,0,0,3.75-2.51" style="fill:none;stroke:#263238;stroke-linecap:round;stroke-linejoin:round"></path><path d="M232.93,132.2a19.52,19.52,0,0,1-8.37-4.24" style="fill:none;stroke:#263238;stroke-linecap:round;stroke-linejoin:round"></path><path d="M247,106.71s3.09-4.73,3.32-7.22S242.69,86,238.66,83.71s-25.2-.56-31,2.48-23.9,39.37-25.15,46.22S190.82,146,202,148.17s13.12,2.2,13.12,2.2-.93-33.32-.84-36.25,0-5.27,1.08-6,19.68-13.86,19.68-13.86S246.3,105.08,247,106.71Z" style="fill:#263238;stroke:#263238;stroke-linecap:round;stroke-linejoin:round"></path><path d="M257.88,320.48s-2.72-.31-2.78,1.62,0,6.84.57,7.93c0,0,1.68-.15,1.7-.79s1.14,3.67,1.33,10.31-.15,10.91,2.07,13.34,5.34,3.38,5.78,2.76S257.88,320.48,257.88,320.48Z" style="fill:#DC2E2E;stroke:#263238;stroke-linecap:round;stroke-linejoin:round"></path><path d="M276.41,399s2.41,34.31,2.34,36.66-1,6-9.8,11-15.3,6.12-14.09,7.66,9.2,6.72,17.65,4.87,11-3.7,15.45-4.62,8-.16,9.35-3.75-3.95-13.4-4.22-17.9,3.22-33.7,3.22-33.7Z" style="fill:#fff;stroke:#263238;stroke-linecap:round;stroke-linejoin:round"></path><path d="M297.31,450.83c.86-2.24-.89-6.88-2.39-11.16A20.66,20.66,0,0,1,284.64,441a12.13,12.13,0,0,0-2.15-4.57c-1.61-2-4.28,2.64-4.28,2.64h-.42c-1.13,2-3.56,4.56-8.84,7.61-8.77,5.05-15.3,6.12-14.09,7.66s9.2,6.72,17.65,4.87,11-3.7,15.45-4.62S295.93,454.42,297.31,450.83Z" style="fill:#263238;stroke:#263238;stroke-linecap:round;stroke-linejoin:round"></path><path d="M288,454.58c4.43-.92,8-.16,9.35-3.75a8.11,8.11,0,0,0-.2-4.39c-.75.36-1.67.78-2.84,1.29-6.81,3-15.18,8.91-24.84,9.44a22,22,0,0,1-14.08-4c-.6.4-.8.76-.49,1.16,1.2,1.53,9.2,6.72,17.65,4.87S283.53,455.5,288,454.58Z" style="fill:#fff;stroke:#263238;stroke-linecap:round;stroke-linejoin:round"></path><path d="M304.45,406.56s.37,32.75-.16,36.16S300,452.84,292.2,459.43s-9.3,8.67-7.68,10.23,10.12,4.4,15,3.28,19.41-10.05,20.71-11.29,1.77-2.72,1.9-6.78-.72-16.07-.53-21.63,3.49-29,3.49-29Z" style="fill:#fff;stroke:#263238;stroke-linecap:round;stroke-linejoin:round"></path><path d="M322.11,454.87c.06-1.65-.05-4.61-.18-7.91a29.77,29.77,0,0,1-8.23,2.7s-1.18-8.81-4.32-8.91-5.58,4.09-5.58,4.09l-.11,0c-1.4,3.68-5.09,9.19-11.49,14.62-7.77,6.58-9.3,8.67-7.68,10.23s10.12,4.4,15,3.28,19.41-10.05,20.71-11.29S322,458.93,322.11,454.87Z" style="fill:#263238;stroke:#263238;stroke-linecap:round;stroke-linejoin:round"></path><path d="M322,456.3c-8.22,3.95-17.25,14-23.12,15.12-5.27,1-12-2.36-14.75-3.88a1.67,1.67,0,0,0,.35,2.12c1.63,1.55,10.12,4.4,15,3.28s19.41-10.05,20.71-11.29C321.34,460.57,321.84,459.3,322,456.3Z" style="fill:#fff;stroke:#263238;stroke-linecap:round;stroke-linejoin:round"></path><path d="M251.22,275.32s4.4,43.8,8.51,58.49,6.79,41.52,6.79,41.52l.2,25s3,3.53,13.9,4.32,16.36-.31,16.36-.31l.9,4.53s13.71,3.45,18.14,2.74,14.84-5.27,14.84-5.27,1.21-17.08-.73-28.06-3.26-21.72-3.26-21.72-3.23-22.36-2.7-32,7.58-25.85,9.85-37.33a72.33,72.33,0,0,0,.54-22.45l-.88-5-83.61-.45Z" style="fill:#DC2E2E;stroke:#263238;stroke-linecap:round;stroke-linejoin:round"></path><path d="M281.87,280s-.95,34.42,3.69,58.54,10.8,53.21,11.42,65.85" style="fill:#DC2E2E;stroke:#263238;stroke-linecap:round;stroke-linejoin:round"></path><path d="M321.17,289.27s-2.77,21.18-3.32,27.34" style="fill:none;stroke:#263238;stroke-linecap:round;stroke-linejoin:round"></path><path d="M324.48,393.38c.15,2.07.23,3.93.22,5.5" style="fill:none;stroke:#263238;stroke-linecap:round;stroke-linejoin:round"></path><path d="M319.59,356.83s3,17.47,4.41,31.09" style="fill:none;stroke:#263238;stroke-linecap:round;stroke-linejoin:round"></path><path d="M300.13,404.92s11.74,7.94,30-3.8" style="fill:none;stroke:#263238;stroke-linecap:round;stroke-linejoin:round"></path><path d="M274.71,398.63c6,1.33,15,2.66,21.6.6" style="fill:none;stroke:#263238;stroke-linecap:round;stroke-linejoin:round"></path><path d="M268.47,397s1.18.38,3.12.89" style="fill:none;stroke:#263238;stroke-linecap:round;stroke-linejoin:round"></path><path d="M311.67,334.91s0,18.19,1,19.93,6.69.44,9-.34,4-.29,5.27-1.11,2.42-3.34,1.87-5.71a123.91,123.91,0,0,1-2.28-13.34,14.68,14.68,0,0,0-.5-3.87S314.8,335.44,311.67,334.91Z" style="fill:#DC2E2E;stroke:#263238;stroke-linecap:round;stroke-linejoin:round"></path><path d="M308.93,323.05l1.26,12.24s7.13,0,9-.77,8.5-3.57,8.5-3.57-.28-4.07-.63-6.22A49.53,49.53,0,0,0,325,318S315.61,323.7,308.93,323.05Z" style="fill:#DC2E2E;stroke:#263238;stroke-linecap:round;stroke-linejoin:round"></path><path d="M276.51,139.25s-25.43,11-25.7,14.21c-.08.93-6.25,25-6.25,25l.83,31.55,10-6.32s-6,47.88-9,57.26-3,13.44-3,13.44,25.57,10,49.23,11.13,39.68-7,39.68-7l-.62-11.88,4.22,10.47s4.11-1.38,8.22-7.68c0,0-12.15-31.56-14.56-40.44s-5-22.18-5.16-23,7.07-59.19,6.65-61.91-29.79-15.39-29.79-15.39Z" style="fill:#a3a3a3;stroke:#263238;stroke-linecap:round;stroke-linejoin:round"></path><path d="M255.39,203.73s-3.28-16.3-2.53-21.65a143.09,143.09,0,0,0,.71-15.34" style="fill:none;stroke:#263238;stroke-linecap:round;stroke-linejoin:round"></path><path d="M274.63,134.79l-8.22,7.68,12.52,10.41s.5-9.8-.91-13.24A11.62,11.62,0,0,0,274.63,134.79Z" style="fill:#fff;stroke:#263238;stroke-linecap:round;stroke-linejoin:round"></path><path d="M243.2,92.43a57,57,0,0,0,3,12.62c2.18,5.49,6.22,6.14,6.23,11s-1.78,7.56-.79,8.27,4.9.33,4.9.33,7.5,8.72,9,9.44,5.78-.82,5.78-.82a54.73,54.73,0,0,1,5.55,11.19,53.92,53.92,0,0,1,2.09,8.37l3.41-10.72,12.84-19.55a44.45,44.45,0,0,1-4.29-8.27c-1.39-3.94-2.49-6.69-2.49-6.69s-5.53-11.53-11.68-15.12S246.73,88.31,243.2,92.43Z" style="fill:#fff;stroke:#263238;stroke-linecap:round;stroke-linejoin:round"></path><path d="M236.05,88.63s6.34,8,14.41,9.63,18.11-.07,18.11-.07,8.28,5.52,10,5.24,4.2-4.09,6.29-.81-.47,8.79,4,11.31,9.55-1.88,10.81-4.37a19.44,19.44,0,0,0,1.68-4.69s-5.37-1.36-5.77-4.42,2.57-6,2.57-6l-2.35-.76s3.69-3.77,4.09-5.62,2.48-3.3.62-3.36-3.49-2-3.49-2-2.85-5.26-10.3-10.25-14.24-9.62-29.65-4.21S231.1,84.91,236.05,88.63Z" style="fill:#263238;stroke:#263238;stroke-linecap:round;stroke-linejoin:round"></path><path d="M280.2,104.84s1.09-7.24,5-7.11,4.63,8.28,3,11.27-2.66,3.64-4,3.08" style="fill:#fff;stroke:#263238;stroke-linecap:round;stroke-linejoin:round"></path><path d="M255.27,111.28l1.59,2.94s3.05.1,4.31-2.06" style="fill:none;stroke:#263238;stroke-linecap:round;stroke-linejoin:round"></path><path d="M252.14,108.81a3.75,3.75,0,0,1,4.17-3.25" style="fill:none;stroke:#263238;stroke-linecap:round;stroke-linejoin:round"></path><path d="M261.76,124.71s4.65-2.39,4.94-5.93" style="fill:none;stroke:#263238;stroke-linecap:round;stroke-linejoin:round"></path><path d="M271.29,133.32s6.2-3.18,8.83-5.8L275,139.37Z" style="fill:#263238;stroke:#263238;stroke-linecap:round;stroke-linejoin:round"></path><polygon points="266.41 142.47 269.9 154.61 275.47 150.05 266.41 142.47" style="fill:#fff;stroke:#263238;stroke-linecap:round;stroke-linejoin:round"></polygon><polygon points="282.34 142.16 289.71 156.38 302.75 129.3 295.18 122.61 282.34 142.16" style="fill:#fff;stroke:#263238;stroke-linecap:round;stroke-linejoin:round"></polygon><path d="M308.47,130.34s-1.09-2.75-3.14-2.48-3.7,9.53-2.88,10.4,1.89-.95,3.68-3.94S308.47,130.34,308.47,130.34Z" style="fill:#fff;stroke:#263238;stroke-linecap:round;stroke-linejoin:round"></path><path d="M308.47,130.34s3.47-2.6,4,.64-4.51,8.31-6.55,8.41S308.47,130.34,308.47,130.34Z" style="fill:#fff;stroke:#263238;stroke-linecap:round;stroke-linejoin:round"></path><path d="M312.3,132.33s3.26-1.42,3.35,1-3.92,5.79-5.27,5.57.61-3,.61-3A16.62,16.62,0,0,0,312.3,132.33Z" style="fill:#fff;stroke:#263238;stroke-linecap:round;stroke-linejoin:round"></path><path d="M315.65,133.29a6.8,6.8,0,0,1,3.13,2.47c.8,1.55.68,5.1-1.14,3.69a7.08,7.08,0,0,1-2.23-4Z" style="fill:#fff;stroke:#263238;stroke-linecap:round;stroke-linejoin:round"></path><path d="M306.43,186.78,281,178.35s-15.67-10.27-17.6-11-7-4.35-8.3-4.18-8,4.5-9.47,4.88a1.59,1.59,0,0,0-1,2.57c.64.45,1,2,1.65,2.65s2.31,2,3.85,1.43,5.71-2.62,6.34-1.95,5,4.93,5.41,6.46-.87,6.68-3.08,7.9-5,.27-7.19,1.49-3.76,1.39-3.27,3.36,3.31,1.84,6.58,1.3,4.39-2,8.7-1.44a49.67,49.67,0,0,0,11.27-.27c1.31-.17,3.91-.3,3.91-.3l25.56,12.55S307.72,193.75,306.43,186.78Z" style="fill:#fff;stroke:#263238;stroke-linecap:round;stroke-linejoin:round"></path><path d="M262.44,167.08s-4.73-4.44-6.06-4.16-12.17,8.82-12.19,9.48,1.78,1.91,3.26,1.17,11.7-6.6,11.7-6.6Z" style="fill:#fff;stroke:#263238;stroke-linecap:round;stroke-linejoin:round"></path><path d="M271.56,186.38c-3.55-.52-4.45-5.16-6.09-7.46s-8.06-7.53-8.06-7.53-7.29,3.33-9.09,3.79-2.36-.48-3-.89,2.74-2.81,5-4.19,7.8-4.35,7.8-4.35a2.26,2.26,0,0,1,2.26-.32c1.16.56,8.27,5,8.27,5" style="fill:#fff;stroke:#263238;stroke-linecap:round;stroke-linejoin:round"></path><path d="M315.89,163.07l2.49,22.6s-13,.21-13.86,0-.36,10.81-.9,14a90,90,0,0,1-2.7,9.65s1.9,1.36,9.52.1,13.48-1.71,14.35-1.9,14.87,2.23,20.08,1.54,4.86-2.65,4.76-6.33-3.31-17.44-4.69-21.59-8.08-36.65-8.48-37.53-18.82-4.17-18.82-4.17" style="fill:#a3a3a3;stroke:#263238;stroke-linecap:round;stroke-linejoin:round"></path><line x1="318.38" y1="185.67" x2="338.78" y2="184.19" style="fill:none;stroke:#263238;stroke-linecap:round;stroke-linejoin:round"></line><line x1="321.21" y1="185.11" x2="338.49" y2="179.85" style="fill:none;stroke:#263238;stroke-linecap:round;stroke-linejoin:round"></line><path d="M322.5,203.05c-.12.66-.27,1.33-.44,2" style="fill:none;stroke:#263238;stroke-linecap:round;stroke-linejoin:round"></path><path d="M320.07,186.81A24,24,0,0,1,322.78,201" style="fill:none;stroke:#263238;stroke-linecap:round;stroke-linejoin:round"></path><path d="M311,205.55a1.52,1.52,0,1,1-1.46-1.56A1.52,1.52,0,0,1,311,205.55Z" style="fill:none;stroke:#263238;stroke-linecap:round;stroke-linejoin:round"></path><path d="M153.8,188.29s-5,11.56-5,11.88,21.68,5.64,21.68,5.64l5.82-11.33Z" style="fill:none;stroke:#263238;stroke-linecap:round;stroke-linejoin:round"></path><path d="M201.6,151.22s-7.32-7.2-11.4-7-10.07,2.83-13.74,8.61-25.07,35.29-25.07,35.29,6.92,5.37,13.21,7.09,19.24,3.37,19.24,3.37l15.69-35" style="fill:#263238;stroke:#263238;stroke-linecap:round;stroke-linejoin:round"></path><path d="M151.88,195c-2.55,1.44-6,14.81-4.88,17.07s6.57,3.14,9.09,2.53S210.61,197,210.61,197s4.45-.27,8.78-1,7-2.54,13.43-2.61,11,.93,11.79.81,1.69-.77,1.19-2.32-5.6-3-7.26-3.3-5.66-.88-7.57-1.92-3.27-6.23-3.1-7,4.77-9.85,4.77-9.85,7.18,1.63,8.56,1.68,3.42-.81,3.54-1.69.84-1.69-.2-2.51a124,124,0,0,0-11.46-6.5c-.82-.17-9.35,1.22-10.32,1.32s-1.92,3.13-3.11,5.46-8.34,16.67-8.34,16.67-5.47,1.63-6,1.75-50.7,7.47-50.7,7.47" style="fill:#fff;stroke:#263238;stroke-linecap:round;stroke-linejoin:round"></path><path d="M223.71,166.83l6.3-1.46s6.74,2,8,2.49,4.24,2.09,5.49,2,1.15-1.22.61-1.51-10.64-5.92-11.75-6.23a24.69,24.69,0,0,0-3.31-.53l-2.78,0" style="fill:#fff;stroke:#263238;stroke-linecap:round;stroke-linejoin:round"></path><path d="M222.34,178.6s-2,6.88-4,8.48a8.85,8.85,0,0,1-4.78,1.65" style="fill:none;stroke:#263238;stroke-linecap:round;stroke-linejoin:round"></path><line x1="228.96" y1="167.7" x2="234.68" y2="167.06" style="fill:#fff;stroke:#263238;stroke-linecap:round;stroke-linejoin:round"></line></g></svg>
