<svg width="694" height="694" viewBox="0 0 694 694" fill="none" xmlns="http://www.w3.org/2000/svg">
<g clip-path="url(#clip0)">
<rect width="694" height="694" fill="#BEC2D4"/>
<circle cx="326.823" cy="381.495" r="241.163" fill="#2D2D38"/>
<rect x="316" y="249" width="22" height="145" rx="11" fill="#BEC2D4"/>
<rect x="480.296" y="472.828" width="22.0913" height="184.556" rx="11.0456" transform="rotate(123.5 480.296 472.828)" fill="#BEC2D4"/>
<path d="M668.784 282.468C690.285 298.381 675.143 332.391 648.929 327.061L398.506 276.14C382.837 272.954 374.145 256.081 380.649 241.473L425.665 140.366C432.169 125.759 450.524 120.927 463.376 130.44L668.784 282.468Z" fill="#505062"/>
<path d="M198.07 72.6953C171.857 67.3651 156.715 101.375 178.216 117.289L383.624 269.317C396.476 278.829 414.831 273.998 421.335 259.39L466.351 158.283C472.854 143.676 464.163 126.802 448.494 123.616L198.07 72.6953Z" fill="#505062"/>
<rect x="618.611" y="288.527" width="28.5345" height="166.605" fill="#505062"/>
<path d="M627.506 433.719C629.713 429.281 636.044 429.281 638.251 433.718L663.242 483.97C665.226 487.958 662.325 492.642 657.87 492.642H607.888C603.433 492.642 600.532 487.958 602.515 483.97L627.506 433.719Z" fill="#505062"/>
<circle cx="632.879" cy="455.593" r="21.631" fill="#505062"/>
</g>
<defs>
<clipPath id="clip0">
<rect width="694" height="694" fill="white"/>
</clipPath>
</defs>
</svg>
